<mxfile host="app.diagrams.net" modified="2022-11-26T18:29:45.019Z" agent="5.0 (Windows NT 10.0; Win64; x64) AppleWebKit/537.36 (KHTML, like Gecko) Chrome/107.0.0.0 Safari/537.36" version="20.6.0" etag="kmLAd8YQ2FQgYSTIGRcQ" type="github">
  <diagram id="zAPGDFbbbaDvvKvTUpeF" name="페이지-1">
    <mxGraphModel dx="1497" dy="794" grid="1" gridSize="10" guides="1" tooltips="1" connect="1" arrows="1" fold="1" page="1" pageScale="1" pageWidth="827" pageHeight="1169" math="0" shadow="0">
      <root>
        <mxCell id="0" />
        <mxCell id="1" parent="0" />
        <mxCell id="pkckRQuR9HhNkEGqXw-G-65" value="" style="edgeStyle=orthogonalEdgeStyle;rounded=0;orthogonalLoop=1;jettySize=auto;html=1;" edge="1" parent="1" source="pkckRQuR9HhNkEGqXw-G-1" target="pkckRQuR9HhNkEGqXw-G-61">
          <mxGeometry relative="1" as="geometry" />
        </mxCell>
        <mxCell id="pkckRQuR9HhNkEGqXw-G-66" style="edgeStyle=orthogonalEdgeStyle;rounded=0;orthogonalLoop=1;jettySize=auto;html=1;exitX=1;exitY=0.5;exitDx=0;exitDy=0;entryX=0;entryY=0.5;entryDx=0;entryDy=0;" edge="1" parent="1" source="pkckRQuR9HhNkEGqXw-G-1" target="pkckRQuR9HhNkEGqXw-G-62">
          <mxGeometry relative="1" as="geometry" />
        </mxCell>
        <mxCell id="pkckRQuR9HhNkEGqXw-G-67" style="edgeStyle=orthogonalEdgeStyle;rounded=0;orthogonalLoop=1;jettySize=auto;html=1;exitX=1;exitY=0.5;exitDx=0;exitDy=0;entryX=0;entryY=0.5;entryDx=0;entryDy=0;" edge="1" parent="1" source="pkckRQuR9HhNkEGqXw-G-1" target="pkckRQuR9HhNkEGqXw-G-63">
          <mxGeometry relative="1" as="geometry" />
        </mxCell>
        <mxCell id="pkckRQuR9HhNkEGqXw-G-68" style="edgeStyle=orthogonalEdgeStyle;rounded=0;orthogonalLoop=1;jettySize=auto;html=1;exitX=1;exitY=0.5;exitDx=0;exitDy=0;entryX=0;entryY=0.5;entryDx=0;entryDy=0;" edge="1" parent="1" source="pkckRQuR9HhNkEGqXw-G-1" target="pkckRQuR9HhNkEGqXw-G-60">
          <mxGeometry relative="1" as="geometry" />
        </mxCell>
        <mxCell id="pkckRQuR9HhNkEGqXw-G-69" style="edgeStyle=orthogonalEdgeStyle;rounded=0;orthogonalLoop=1;jettySize=auto;html=1;exitX=1;exitY=0.5;exitDx=0;exitDy=0;entryX=0;entryY=0.5;entryDx=0;entryDy=0;" edge="1" parent="1" source="pkckRQuR9HhNkEGqXw-G-1" target="pkckRQuR9HhNkEGqXw-G-59">
          <mxGeometry relative="1" as="geometry" />
        </mxCell>
        <mxCell id="pkckRQuR9HhNkEGqXw-G-70" style="edgeStyle=orthogonalEdgeStyle;rounded=0;orthogonalLoop=1;jettySize=auto;html=1;exitX=1;exitY=0.5;exitDx=0;exitDy=0;entryX=0;entryY=0.5;entryDx=0;entryDy=0;" edge="1" parent="1" source="pkckRQuR9HhNkEGqXw-G-1" target="pkckRQuR9HhNkEGqXw-G-51">
          <mxGeometry relative="1" as="geometry" />
        </mxCell>
        <mxCell id="pkckRQuR9HhNkEGqXw-G-1" value="&lt;b&gt;Control PC&lt;/b&gt;" style="rounded=0;whiteSpace=wrap;html=1;fillColor=#d5e8d4;strokeColor=#82b366;" vertex="1" parent="1">
          <mxGeometry x="420" y="270" width="120" height="140" as="geometry" />
        </mxCell>
        <mxCell id="pkckRQuR9HhNkEGqXw-G-45" value="" style="edgeStyle=orthogonalEdgeStyle;rounded=0;orthogonalLoop=1;jettySize=auto;html=1;" edge="1" parent="1" source="pkckRQuR9HhNkEGqXw-G-2" target="pkckRQuR9HhNkEGqXw-G-1">
          <mxGeometry relative="1" as="geometry" />
        </mxCell>
        <mxCell id="pkckRQuR9HhNkEGqXw-G-2" value="&lt;b&gt;Force Torque Sensor&lt;/b&gt;" style="rounded=0;whiteSpace=wrap;html=1;fillColor=#dae8fc;strokeColor=#6c8ebf;" vertex="1" parent="1">
          <mxGeometry x="260" y="270" width="120" height="60" as="geometry" />
        </mxCell>
        <mxCell id="pkckRQuR9HhNkEGqXw-G-46" value="" style="edgeStyle=orthogonalEdgeStyle;rounded=0;orthogonalLoop=1;jettySize=auto;html=1;" edge="1" parent="1" source="pkckRQuR9HhNkEGqXw-G-3" target="pkckRQuR9HhNkEGqXw-G-1">
          <mxGeometry relative="1" as="geometry" />
        </mxCell>
        <mxCell id="pkckRQuR9HhNkEGqXw-G-3" value="&lt;b&gt;JoyStick&lt;/b&gt;" style="rounded=0;whiteSpace=wrap;html=1;fillColor=#dae8fc;strokeColor=#6c8ebf;" vertex="1" parent="1">
          <mxGeometry x="260" y="340" width="120" height="60" as="geometry" />
        </mxCell>
        <mxCell id="pkckRQuR9HhNkEGqXw-G-95" value="" style="edgeStyle=orthogonalEdgeStyle;rounded=0;orthogonalLoop=1;jettySize=auto;html=1;" edge="1" parent="1" source="pkckRQuR9HhNkEGqXw-G-4" target="pkckRQuR9HhNkEGqXw-G-2">
          <mxGeometry relative="1" as="geometry" />
        </mxCell>
        <mxCell id="pkckRQuR9HhNkEGqXw-G-4" value="&lt;b&gt;5V&lt;br&gt;Power Supply&lt;/b&gt;" style="rounded=0;whiteSpace=wrap;html=1;fillColor=#f8cecc;strokeColor=#b85450;" vertex="1" parent="1">
          <mxGeometry x="100" y="270" width="120" height="60" as="geometry" />
        </mxCell>
        <mxCell id="pkckRQuR9HhNkEGqXw-G-96" style="edgeStyle=orthogonalEdgeStyle;rounded=0;orthogonalLoop=1;jettySize=auto;html=1;exitX=1;exitY=0.5;exitDx=0;exitDy=0;entryX=0.5;entryY=0;entryDx=0;entryDy=0;" edge="1" parent="1" source="pkckRQuR9HhNkEGqXw-G-5" target="pkckRQuR9HhNkEGqXw-G-51">
          <mxGeometry relative="1" as="geometry" />
        </mxCell>
        <mxCell id="pkckRQuR9HhNkEGqXw-G-5" value="&lt;b&gt;24V&lt;br&gt;Power Supply&lt;/b&gt;" style="rounded=0;whiteSpace=wrap;html=1;fillColor=#f8cecc;strokeColor=#b85450;" vertex="1" parent="1">
          <mxGeometry x="100" y="140" width="120" height="60" as="geometry" />
        </mxCell>
        <mxCell id="pkckRQuR9HhNkEGqXw-G-37" value="" style="group" vertex="1" connectable="0" parent="1">
          <mxGeometry x="280" y="450" width="210" height="200" as="geometry" />
        </mxCell>
        <mxCell id="pkckRQuR9HhNkEGqXw-G-21" value="" style="rounded=0;whiteSpace=wrap;html=1;fillColor=none;strokeColor=#b85450;dashed=1;" vertex="1" parent="pkckRQuR9HhNkEGqXw-G-37">
          <mxGeometry width="210" height="200" as="geometry" />
        </mxCell>
        <mxCell id="pkckRQuR9HhNkEGqXw-G-92" style="edgeStyle=orthogonalEdgeStyle;rounded=0;orthogonalLoop=1;jettySize=auto;html=1;exitX=0.5;exitY=0;exitDx=0;exitDy=0;entryX=0.5;entryY=1;entryDx=0;entryDy=0;" edge="1" parent="pkckRQuR9HhNkEGqXw-G-37" source="pkckRQuR9HhNkEGqXw-G-13" target="pkckRQuR9HhNkEGqXw-G-14">
          <mxGeometry relative="1" as="geometry" />
        </mxCell>
        <mxCell id="pkckRQuR9HhNkEGqXw-G-13" value="&lt;b&gt;Motor&lt;/b&gt;" style="rounded=0;whiteSpace=wrap;html=1;fillColor=#f8cecc;strokeColor=#b85450;" vertex="1" parent="pkckRQuR9HhNkEGqXw-G-37">
          <mxGeometry x="22" y="150" width="166" height="36" as="geometry" />
        </mxCell>
        <mxCell id="pkckRQuR9HhNkEGqXw-G-93" style="edgeStyle=orthogonalEdgeStyle;rounded=0;orthogonalLoop=1;jettySize=auto;html=1;exitX=0.5;exitY=0;exitDx=0;exitDy=0;entryX=0.5;entryY=1;entryDx=0;entryDy=0;" edge="1" parent="pkckRQuR9HhNkEGqXw-G-37" source="pkckRQuR9HhNkEGqXw-G-14" target="pkckRQuR9HhNkEGqXw-G-15">
          <mxGeometry relative="1" as="geometry" />
        </mxCell>
        <mxCell id="pkckRQuR9HhNkEGqXw-G-14" value="&lt;b&gt;Gear Box&lt;/b&gt;" style="rounded=0;whiteSpace=wrap;html=1;fillColor=#f5f5f5;fontColor=#333333;strokeColor=#666666;" vertex="1" parent="pkckRQuR9HhNkEGqXw-G-37">
          <mxGeometry x="22" y="100" width="166" height="36" as="geometry" />
        </mxCell>
        <mxCell id="pkckRQuR9HhNkEGqXw-G-15" value="&lt;b&gt;Ball Screw&lt;/b&gt;" style="rounded=0;whiteSpace=wrap;html=1;fillColor=#f5f5f5;fontColor=#333333;strokeColor=#666666;" vertex="1" parent="pkckRQuR9HhNkEGqXw-G-37">
          <mxGeometry x="22" y="50" width="166" height="36" as="geometry" />
        </mxCell>
        <mxCell id="pkckRQuR9HhNkEGqXw-G-22" value="&lt;h1&gt;Linear Actuator&lt;/h1&gt;" style="text;html=1;strokeColor=none;fillColor=none;align=center;verticalAlign=middle;whiteSpace=wrap;rounded=0;dashed=1;" vertex="1" parent="pkckRQuR9HhNkEGqXw-G-37">
          <mxGeometry x="2.5" y="10" width="205" height="30" as="geometry" />
        </mxCell>
        <mxCell id="pkckRQuR9HhNkEGqXw-G-39" value="" style="group" vertex="1" connectable="0" parent="1">
          <mxGeometry x="80" y="450" width="160" height="200" as="geometry" />
        </mxCell>
        <mxCell id="pkckRQuR9HhNkEGqXw-G-9" value="" style="rounded=0;whiteSpace=wrap;html=1;fillColor=none;dashed=1;strokeColor=#b85450;" vertex="1" parent="pkckRQuR9HhNkEGqXw-G-39">
          <mxGeometry width="160" height="200" as="geometry" />
        </mxCell>
        <mxCell id="pkckRQuR9HhNkEGqXw-G-7" value="Incremental Encoder" style="rounded=0;whiteSpace=wrap;html=1;fillColor=#dae8fc;strokeColor=#6c8ebf;" vertex="1" parent="pkckRQuR9HhNkEGqXw-G-39">
          <mxGeometry x="20" y="125" width="120" height="50" as="geometry" />
        </mxCell>
        <mxCell id="pkckRQuR9HhNkEGqXw-G-10" value="&lt;h1&gt;Motor&lt;/h1&gt;" style="text;html=1;strokeColor=none;fillColor=none;align=center;verticalAlign=middle;whiteSpace=wrap;rounded=0;dashed=1;" vertex="1" parent="pkckRQuR9HhNkEGqXw-G-39">
          <mxGeometry x="50" y="12.5" width="60" height="37.5" as="geometry" />
        </mxCell>
        <mxCell id="pkckRQuR9HhNkEGqXw-G-8" value="BLDC&lt;br&gt;Motor" style="rounded=0;whiteSpace=wrap;html=1;fillColor=#f8cecc;strokeColor=#b85450;" vertex="1" parent="pkckRQuR9HhNkEGqXw-G-39">
          <mxGeometry x="20" y="57.5" width="120" height="50" as="geometry" />
        </mxCell>
        <mxCell id="pkckRQuR9HhNkEGqXw-G-64" value="" style="group" vertex="1" connectable="0" parent="1">
          <mxGeometry x="580" y="190" width="120" height="300" as="geometry" />
        </mxCell>
        <mxCell id="pkckRQuR9HhNkEGqXw-G-51" value="&lt;b&gt;Motor Driver&lt;/b&gt;" style="rounded=0;whiteSpace=wrap;html=1;fillColor=#d5e8d4;strokeColor=#82b366;" vertex="1" parent="pkckRQuR9HhNkEGqXw-G-64">
          <mxGeometry width="120" height="50" as="geometry" />
        </mxCell>
        <mxCell id="pkckRQuR9HhNkEGqXw-G-59" value="&lt;b&gt;Motor Driver&lt;/b&gt;" style="rounded=0;whiteSpace=wrap;html=1;fillColor=#d5e8d4;strokeColor=#82b366;" vertex="1" parent="pkckRQuR9HhNkEGqXw-G-64">
          <mxGeometry y="50" width="120" height="50" as="geometry" />
        </mxCell>
        <mxCell id="pkckRQuR9HhNkEGqXw-G-60" value="&lt;b&gt;Motor Driver&lt;/b&gt;" style="rounded=0;whiteSpace=wrap;html=1;fillColor=#d5e8d4;strokeColor=#82b366;" vertex="1" parent="pkckRQuR9HhNkEGqXw-G-64">
          <mxGeometry y="100" width="120" height="50" as="geometry" />
        </mxCell>
        <mxCell id="pkckRQuR9HhNkEGqXw-G-61" value="&lt;b&gt;Motor Driver&lt;/b&gt;" style="rounded=0;whiteSpace=wrap;html=1;fillColor=#d5e8d4;strokeColor=#82b366;" vertex="1" parent="pkckRQuR9HhNkEGqXw-G-64">
          <mxGeometry y="150" width="120" height="50" as="geometry" />
        </mxCell>
        <mxCell id="pkckRQuR9HhNkEGqXw-G-62" value="&lt;b&gt;Motor Driver&lt;/b&gt;" style="rounded=0;whiteSpace=wrap;html=1;fillColor=#d5e8d4;strokeColor=#82b366;" vertex="1" parent="pkckRQuR9HhNkEGqXw-G-64">
          <mxGeometry y="200" width="120" height="50" as="geometry" />
        </mxCell>
        <mxCell id="pkckRQuR9HhNkEGqXw-G-63" value="&lt;b&gt;Motor Driver&lt;/b&gt;" style="rounded=0;whiteSpace=wrap;html=1;fillColor=#d5e8d4;strokeColor=#82b366;" vertex="1" parent="pkckRQuR9HhNkEGqXw-G-64">
          <mxGeometry y="250" width="120" height="50" as="geometry" />
        </mxCell>
        <mxCell id="pkckRQuR9HhNkEGqXw-G-71" style="edgeStyle=orthogonalEdgeStyle;rounded=0;orthogonalLoop=1;jettySize=auto;html=1;exitX=1;exitY=0.5;exitDx=0;exitDy=0;" edge="1" parent="1" source="pkckRQuR9HhNkEGqXw-G-51" target="pkckRQuR9HhNkEGqXw-G-27">
          <mxGeometry relative="1" as="geometry" />
        </mxCell>
        <mxCell id="pkckRQuR9HhNkEGqXw-G-84" style="edgeStyle=orthogonalEdgeStyle;rounded=0;orthogonalLoop=1;jettySize=auto;html=1;exitX=1;exitY=0.5;exitDx=0;exitDy=0;" edge="1" parent="1" source="pkckRQuR9HhNkEGqXw-G-59" target="pkckRQuR9HhNkEGqXw-G-77">
          <mxGeometry relative="1" as="geometry" />
        </mxCell>
        <mxCell id="pkckRQuR9HhNkEGqXw-G-85" style="edgeStyle=orthogonalEdgeStyle;rounded=0;orthogonalLoop=1;jettySize=auto;html=1;exitX=1;exitY=0.5;exitDx=0;exitDy=0;entryX=0;entryY=0.5;entryDx=0;entryDy=0;" edge="1" parent="1" source="pkckRQuR9HhNkEGqXw-G-60" target="pkckRQuR9HhNkEGqXw-G-78">
          <mxGeometry relative="1" as="geometry" />
        </mxCell>
        <mxCell id="pkckRQuR9HhNkEGqXw-G-86" style="edgeStyle=orthogonalEdgeStyle;rounded=0;orthogonalLoop=1;jettySize=auto;html=1;exitX=1;exitY=0.5;exitDx=0;exitDy=0;" edge="1" parent="1" source="pkckRQuR9HhNkEGqXw-G-61" target="pkckRQuR9HhNkEGqXw-G-79">
          <mxGeometry relative="1" as="geometry" />
        </mxCell>
        <mxCell id="pkckRQuR9HhNkEGqXw-G-87" style="edgeStyle=orthogonalEdgeStyle;rounded=0;orthogonalLoop=1;jettySize=auto;html=1;exitX=1;exitY=0.5;exitDx=0;exitDy=0;entryX=0;entryY=0.5;entryDx=0;entryDy=0;" edge="1" parent="1" source="pkckRQuR9HhNkEGqXw-G-62" target="pkckRQuR9HhNkEGqXw-G-80">
          <mxGeometry relative="1" as="geometry" />
        </mxCell>
        <mxCell id="pkckRQuR9HhNkEGqXw-G-88" style="edgeStyle=orthogonalEdgeStyle;rounded=0;orthogonalLoop=1;jettySize=auto;html=1;exitX=1;exitY=0.5;exitDx=0;exitDy=0;entryX=0;entryY=0.5;entryDx=0;entryDy=0;" edge="1" parent="1" source="pkckRQuR9HhNkEGqXw-G-63" target="pkckRQuR9HhNkEGqXw-G-81">
          <mxGeometry relative="1" as="geometry" />
        </mxCell>
        <mxCell id="pkckRQuR9HhNkEGqXw-G-89" value="" style="group" vertex="1" connectable="0" parent="1">
          <mxGeometry x="728.86" y="125" width="331.48000000000013" height="385" as="geometry" />
        </mxCell>
        <mxCell id="pkckRQuR9HhNkEGqXw-G-34" value="" style="rounded=0;whiteSpace=wrap;html=1;dashed=1;fillColor=none;strokeColor=#b85450;" vertex="1" parent="pkckRQuR9HhNkEGqXw-G-89">
          <mxGeometry width="331.48" height="385" as="geometry" />
        </mxCell>
        <mxCell id="pkckRQuR9HhNkEGqXw-G-35" value="&lt;h1&gt;Stewart-Gough Platform&lt;/h1&gt;" style="text;html=1;strokeColor=none;fillColor=none;align=center;verticalAlign=middle;whiteSpace=wrap;rounded=0;dashed=1;" vertex="1" parent="pkckRQuR9HhNkEGqXw-G-89">
          <mxGeometry x="23.100000000000023" y="15" width="285.29" height="30" as="geometry" />
        </mxCell>
        <mxCell id="pkckRQuR9HhNkEGqXw-G-82" value="" style="group" vertex="1" connectable="0" parent="pkckRQuR9HhNkEGqXw-G-89">
          <mxGeometry x="43.71689075630252" y="65" width="244.03999999999996" height="300" as="geometry" />
        </mxCell>
        <mxCell id="pkckRQuR9HhNkEGqXw-G-27" value="&lt;b&gt;Linear Actuator&lt;/b&gt;" style="rounded=0;whiteSpace=wrap;html=1;fillColor=#f8cecc;strokeColor=#b85450;" vertex="1" parent="pkckRQuR9HhNkEGqXw-G-82">
          <mxGeometry x="0.009999999999990905" width="244.03" height="50" as="geometry" />
        </mxCell>
        <mxCell id="pkckRQuR9HhNkEGqXw-G-77" value="&lt;b&gt;Linear Actuator&lt;/b&gt;" style="rounded=0;whiteSpace=wrap;html=1;fillColor=#f8cecc;strokeColor=#b85450;" vertex="1" parent="pkckRQuR9HhNkEGqXw-G-82">
          <mxGeometry y="50" width="244.03" height="50" as="geometry" />
        </mxCell>
        <mxCell id="pkckRQuR9HhNkEGqXw-G-78" value="&lt;b&gt;Linear Actuator&lt;/b&gt;" style="rounded=0;whiteSpace=wrap;html=1;fillColor=#f8cecc;strokeColor=#b85450;" vertex="1" parent="pkckRQuR9HhNkEGqXw-G-82">
          <mxGeometry y="100" width="244.03" height="50" as="geometry" />
        </mxCell>
        <mxCell id="pkckRQuR9HhNkEGqXw-G-79" value="&lt;b&gt;Linear Actuator&lt;/b&gt;" style="rounded=0;whiteSpace=wrap;html=1;fillColor=#f8cecc;strokeColor=#b85450;" vertex="1" parent="pkckRQuR9HhNkEGqXw-G-82">
          <mxGeometry y="150" width="244.03" height="50" as="geometry" />
        </mxCell>
        <mxCell id="pkckRQuR9HhNkEGqXw-G-80" value="&lt;b&gt;Linear Actuator&lt;/b&gt;" style="rounded=0;whiteSpace=wrap;html=1;fillColor=#f8cecc;strokeColor=#b85450;" vertex="1" parent="pkckRQuR9HhNkEGqXw-G-82">
          <mxGeometry y="200" width="244.03" height="50" as="geometry" />
        </mxCell>
        <mxCell id="pkckRQuR9HhNkEGqXw-G-81" value="&lt;b&gt;Linear Actuator&lt;/b&gt;" style="rounded=0;whiteSpace=wrap;html=1;fillColor=#f8cecc;strokeColor=#b85450;" vertex="1" parent="pkckRQuR9HhNkEGqXw-G-82">
          <mxGeometry y="250" width="244.03" height="50" as="geometry" />
        </mxCell>
      </root>
    </mxGraphModel>
  </diagram>
</mxfile>
